<?xml version="1.0" standalone="no"?>
<!DOCTYPE svg PUBLIC "-//W3C//DTD SVG 1.1//EN" "http://www.w3.org/Graphics/SVG/1.1/DTD/svg11.dtd" >
<svg xmlns="http://www.w3.org/2000/svg">
<metadata>Generated by IcoMoon</metadata>
<defs>
<font id="vs-icon" horiz-adv-x="1024">
<font-face units-per-em="1024" ascent="960" descent="-64" />
<missing-glyph horiz-adv-x="1024" />
<glyph unicode="&#x20;" horiz-adv-x="512" d="" />
<glyph unicode="&#xe900;" glyph-name="arrow-left" d="M213.333 448c0 12.8 4.267 25.6 12.8 34.133l512 465.067c17.067 17.067 42.667 17.067 59.733 0s17.067-42.667 0-59.733l-482.133-439.467 482.133-439.467c17.067-17.067 17.067-42.667 0-59.733s-42.667-17.067-59.733 0l-512 465.067c-8.533 8.533-12.8 21.333-12.8 34.133z" />
<glyph unicode="&#xe901;" glyph-name="arrow-right" d="M797.867 413.867l-512-465.067c-17.067-17.067-42.667-17.067-59.733 0s-17.067 42.667 0 59.733l482.133 439.467-482.133 439.467c-17.067 17.067-17.067 42.667 0 59.733s42.667 17.067 59.733 0l512-465.067c8.533-8.533 12.8-21.333 12.8-34.133s-4.267-25.6-12.8-34.133z" />
<glyph unicode="&#xe902;" glyph-name="bank-note" d="M981.333 106.667h-938.667c-25.6 0-42.667 17.067-42.667 42.667v597.333c0 25.6 17.067 42.667 42.667 42.667h938.667c25.6 0 42.667-17.067 42.667-42.667v-597.333c0-25.6-17.067-42.667-42.667-42.667zM85.333 192h853.333v512h-853.333v-512zM512 277.333c-93.867 0-170.667 76.8-170.667 170.667s76.8 170.667 170.667 170.667 170.667-76.8 170.667-170.667-76.8-170.667-170.667-170.667zM512 533.333c-46.933 0-85.333-38.4-85.333-85.333s38.4-85.333 85.333-85.333 85.333 38.4 85.333 85.333-38.4 85.333-85.333 85.333zM85.333 533.333c-21.333 0-38.4 4.267-59.733 8.533-21.333 8.533-29.867 34.133-21.333 55.467s34.133 34.133 55.467 25.6c8.533-4.267 17.067-4.267 25.6-4.267 46.933 0 85.333 38.4 85.333 85.333 0 8.533 0 17.067-4.267 25.6-8.533 25.6 0 46.933 25.6 55.467 21.333 8.533 46.933 0 55.467-21.333 4.267-21.333 8.533-38.4 8.533-59.733 0-93.867-76.8-170.667-170.667-170.667zM938.667 533.333c-93.867 0-170.667 76.8-170.667 170.667 0 21.333 4.267 38.4 8.533 59.733 8.533 21.333 34.133 34.133 55.467 25.6s34.133-34.133 25.6-55.467c-4.267-12.8-4.267-21.333-4.267-29.867 0-46.933 38.4-85.333 85.333-85.333 8.533 0 17.067 0 25.6 4.267 21.333 8.533 46.933-4.267 55.467-25.6s-4.267-46.933-25.6-55.467c-17.067-4.267-34.133-8.533-55.467-8.533zM204.8 106.667c-4.267 0-8.533 0-17.067 4.267-21.333 8.533-34.133 34.133-25.6 55.467 8.533 8.533 8.533 17.067 8.533 25.6 0 46.933-38.4 85.333-85.333 85.333-8.533 0-17.067 0-25.6-4.267-21.333-8.533-46.933 4.267-55.467 25.6s4.267 46.933 25.6 55.467c17.067 4.267 34.133 8.533 55.467 8.533 93.867 0 170.667-76.8 170.667-170.667 0-21.333-4.267-38.4-8.533-59.733-8.533-17.067-25.6-25.6-42.667-25.6zM819.2 106.667c-17.067 0-34.133 8.533-38.4 25.6-8.533 21.333-12.8 38.4-12.8 59.733 0 93.867 76.8 170.667 170.667 170.667 21.333 0 38.4-4.267 59.733-8.533 21.333-8.533 34.133-34.133 25.6-55.467s-34.133-34.133-55.467-25.6c-12.8 4.267-21.333 4.267-29.867 4.267-46.933 0-85.333-38.4-85.333-85.333 0-8.533 0-17.067 4.267-25.6 8.533-21.333-4.267-46.933-25.6-55.467-4.267-4.267-8.533-4.267-12.8-4.267z" />
<glyph unicode="&#xe903;" glyph-name="bargaining" d="M853.333 746.667h-682.667c-46.933 0-85.333-38.4-85.333-85.333v-426.667c0-46.933 38.4-85.333 85.333-85.333h682.667c46.933 0 85.333 38.4 85.333 85.333v426.667c0 46.933-38.4 85.333-85.333 85.333zM597.333 618.667h85.333v-128h-85.333v128zM512 576h42.667v-42.667h-42.667v42.667zM469.333 618.667v-68.267h-8.533c-17.067 12.8-34.133 21.333-51.2 25.6 0 0-4.267 0-4.267 0s-4.267 0-4.267 0c0 0-4.267 0-4.267 0s-4.267 0-4.267 0c0 0 0 0-4.267 0s-4.267 0-8.533 0-8.533 0-12.8 0c0 0 0 0 0 0-4.267 0-8.533 0-12.8 0 0 0 0 0 0 0-4.267 0-4.267 0-8.533 0 0 0 0 0 0 0-4.267-4.267-8.533-4.267-12.8-4.267 0 0 0 0 0 0-4.267 0-4.267-4.267-8.533-4.267 0 0 0 0 0 0-4.267-4.267-4.267-8.533-8.533-12.8 0 0 0 0 0 0-4.267 0-4.267-4.267-8.533-8.533 0 0 0 0 0 0 0-4.267-4.267-4.267-4.267-8.533-4.267-4.267-4.267-8.533-4.267-12.8v0h115.2l-8.533-42.667h-119.467c0-4.267 0-8.533 0-12.8 0 0 0-4.267 0-4.267 0-4.267 0-8.533 0-12.8h115.2v-8.533l-8.533-38.4h-93.867c0-4.267 4.267-8.533 4.267-8.533s0-4.267 4.267-4.267c0 0 4.267-4.267 4.267-4.267s4.267-4.267 4.267-4.267c0 0 4.267-4.267 4.267-4.267s4.267-4.267 4.267-4.267c0 0 4.267-4.267 4.267-4.267s4.267 0 4.267-4.267c0 0 4.267-4.267 4.267-4.267s4.267 0 4.267-4.267c4.267 0 4.267 0 8.533-4.267 0 0 4.267 0 4.267 0 4.267 0 4.267 0 8.533 0 0 0 4.267 0 4.267 0 4.267 0 8.533 0 12.8 0 25.6 0 51.2 12.8 81.067 34.133h8.533v-76.8c-34.133-12.8-68.267-21.333-102.4-21.333-42.667 0-76.8 8.533-106.667 29.867-25.6 21.333-46.933 46.933-55.467 85.333h-29.867l8.533 42.667h17.067c0 4.267 0 4.267 0 8.533 0 0 0 0 0 0 0 4.267 0 8.533 0 12.8s0 8.533 0 12.8h-25.6l8.533 42.667h21.333c8.533 38.4 25.6 68.267 55.467 89.6s64 34.133 106.667 34.133c34.133 0 68.267-8.533 102.4-21.333v-8.533zM640 320h-128v42.667h128v-42.667zM768 277.333h-85.333v128h85.333v-128zM853.333 320h-42.667v42.667h42.667v-42.667zM853.333 533.333h-128v42.667h128v-42.667z" />
<glyph unicode="&#xe904;" glyph-name="broadband" d="M985.6 416c-19.2 19.2-44.8 32-76.8 32h-140.8v192h-128v-192h-524.8c-32 0-64-19.2-83.2-38.4s-32-44.8-32-76.8v-217.6c0-32 19.2-64 38.4-83.2s44.8-32 76.8-32h793.6c32 0 64 19.2 83.2 38.4s32 44.8 32 76.8v217.6c0 32-19.2 64-38.4 83.2zM256 128h-128v192h128v-192zM448 128h-128v192h128v-192zM640 128h-128v192h128v-192zM896 748.8l-44.8-44.8c-38.4 38.4-83.2 57.6-140.8 57.6s-102.4-19.2-140.8-57.6l-51.2 44.8c57.6 51.2 115.2 83.2 185.6 83.2 76.8 0 140.8-32 192-83.2zM947.2 793.6c-70.4 64-153.6 96-243.2 96-83.2 0-166.4-32-236.8-96l-44.8 44.8c83.2 83.2 172.8 121.6 281.6 121.6s204.8-38.4 288-121.6l-44.8-44.8z" />
<glyph unicode="&#xe905;" glyph-name="calendar" d="M896-21.333h-768c-72.533 0-128 55.467-128 128v597.333c0 72.533 55.467 128 128 128h768c72.533 0 128-55.467 128-128v-597.333c0-72.533-55.467-128-128-128zM128 746.667c-25.6 0-42.667-17.067-42.667-42.667v-597.333c0-25.6 17.067-42.667 42.667-42.667h768c25.6 0 42.667 17.067 42.667 42.667v597.333c0 25.6-17.067 42.667-42.667 42.667h-768zM256 661.333c-25.6 0-42.667 17.067-42.667 42.667v170.667c0 25.6 17.067 42.667 42.667 42.667s42.667-17.067 42.667-42.667v-170.667c0-25.6-17.067-42.667-42.667-42.667zM768 661.333c-25.6 0-42.667 17.067-42.667 42.667v170.667c0 25.6 17.067 42.667 42.667 42.667s42.667-17.067 42.667-42.667v-170.667c0-25.6-17.067-42.667-42.667-42.667zM981.333 490.667h-938.667c-25.6 0-42.667 17.067-42.667 42.667s17.067 42.667 42.667 42.667h938.667c25.6 0 42.667-17.067 42.667-42.667s-17.067-42.667-42.667-42.667zM298.667 362.667c0-23.564-19.103-42.667-42.667-42.667s-42.667 19.103-42.667 42.667c0 23.564 19.103 42.667 42.667 42.667s42.667-19.103 42.667-42.667zM256 298.667c-34.133 0-64 29.867-64 64s29.867 64 64 64 64-29.867 64-64-29.867-64-64-64zM256 384c-12.8 0-21.333-8.533-21.333-21.333s8.533-21.333 21.333-21.333 21.333 8.533 21.333 21.333-8.533 21.333-21.333 21.333zM298.667 192c0-23.564-19.103-42.667-42.667-42.667s-42.667 19.103-42.667 42.667c0 23.564 19.103 42.667 42.667 42.667s42.667-19.103 42.667-42.667zM256 128c-34.133 0-64 29.867-64 64s29.867 64 64 64 64-29.867 64-64-29.867-64-64-64zM256 213.333c-12.8 0-21.333-8.533-21.333-21.333s8.533-21.333 21.333-21.333 21.333 8.533 21.333 21.333-8.533 21.333-21.333 21.333zM469.333 192c0-23.564-19.103-42.667-42.667-42.667s-42.667 19.103-42.667 42.667c0 23.564 19.103 42.667 42.667 42.667s42.667-19.103 42.667-42.667zM426.667 128c-34.133 0-64 29.867-64 64s29.867 64 64 64 64-29.867 64-64-29.867-64-64-64zM426.667 213.333c-12.8 0-21.333-8.533-21.333-21.333s8.533-21.333 21.333-21.333 21.333 8.533 21.333 21.333-8.533 21.333-21.333 21.333zM469.333 362.667c0-23.564-19.103-42.667-42.667-42.667s-42.667 19.103-42.667 42.667c0 23.564 19.103 42.667 42.667 42.667s42.667-19.103 42.667-42.667zM426.667 298.667c-34.133 0-64 29.867-64 64s29.867 64 64 64 64-29.867 64-64-29.867-64-64-64zM426.667 384c-12.8 0-21.333-8.533-21.333-21.333s8.533-21.333 21.333-21.333 21.333 8.533 21.333 21.333-8.533 21.333-21.333 21.333zM640 362.667c0-23.564-19.103-42.667-42.667-42.667s-42.667 19.103-42.667 42.667c0 23.564 19.103 42.667 42.667 42.667s42.667-19.103 42.667-42.667zM597.333 298.667c-34.133 0-64 29.867-64 64s29.867 64 64 64 64-29.867 64-64-29.867-64-64-64zM597.333 384c-12.8 0-21.333-8.533-21.333-21.333s8.533-21.333 21.333-21.333 21.333 8.533 21.333 21.333-8.533 21.333-21.333 21.333zM640 192c0-23.564-19.103-42.667-42.667-42.667s-42.667 19.103-42.667 42.667c0 23.564 19.103 42.667 42.667 42.667s42.667-19.103 42.667-42.667zM597.333 128c-34.133 0-64 29.867-64 64s29.867 64 64 64 64-29.867 64-64-29.867-64-64-64zM597.333 213.333c-12.8 0-21.333-8.533-21.333-21.333s8.533-21.333 21.333-21.333 21.333 8.533 21.333 21.333-8.533 21.333-21.333 21.333zM810.667 192c0-23.564-19.103-42.667-42.667-42.667s-42.667 19.103-42.667 42.667c0 23.564 19.103 42.667 42.667 42.667s42.667-19.103 42.667-42.667zM768 128c-34.133 0-64 29.867-64 64s29.867 64 64 64 64-29.867 64-64-29.867-64-64-64zM768 213.333c-12.8 0-21.333-8.533-21.333-21.333s8.533-21.333 21.333-21.333 21.333 8.533 21.333 21.333-8.533 21.333-21.333 21.333zM810.667 362.667c0-23.564-19.103-42.667-42.667-42.667s-42.667 19.103-42.667 42.667c0 23.564 19.103 42.667 42.667 42.667s42.667-19.103 42.667-42.667zM768 298.667c-34.133 0-64 29.867-64 64s29.867 64 64 64 64-29.867 64-64-29.867-64-64-64zM768 384c-12.8 0-21.333-8.533-21.333-21.333s8.533-21.333 21.333-21.333 21.333 8.533 21.333 21.333-8.533 21.333-21.333 21.333z" />
<glyph unicode="&#xe906;" glyph-name="calendar2" d="M832 960h-128v-128h128v128zM960 960h-64v-192h-256v192h-256v-192h-256v192h-64c-35.36 0-64-28.64-64-64v-896c0-35.36 28.608-64 64-64h896c35.36 0 64 28.64 64 64v896c0 35.36-28.64 64-64 64zM896 64h-768v576h768v-576zM320 960h-128v-128h128v128zM576 512h-128v-128h128v128zM768 512h-128v-128h128v128zM384 320h-128v-128h128v128zM384 512h-128v-128h128v128zM576 320h-128v-128h128v128zM768 320h-128v-128h128v128z" />
<glyph unicode="&#xe907;" glyph-name="camera" d="M878.933 21.333h-733.867c-81.067 0-145.067 64-145.067 145.067v392.533c0 81.067 64 145.067 145.067 145.067 25.6 0 46.933 12.8 59.733 34.133l25.6 55.467c25.6 51.2 76.8 81.067 132.267 81.067h298.667c55.467 0 106.667-29.867 132.267-81.067l25.6-55.467c12.8-21.333 34.133-34.133 55.467-34.133 85.333 0 149.333-64 149.333-145.067v-388.267c0-85.333-64-149.333-145.067-149.333zM362.667 789.333c-21.333 0-42.667-12.8-55.467-34.133l-25.6-55.467c-25.6-51.2-76.8-81.067-132.267-81.067-38.4 0-64-25.6-64-59.733v-388.267c0-38.4 25.6-64 59.733-64h729.6c34.133 0 59.733 25.6 59.733 59.733v392.533c4.267 34.133-21.333 59.733-55.467 59.733-59.733 0-106.667 29.867-132.267 81.067l-25.6 55.467c-17.067 21.333-38.4 34.133-59.733 34.133h-298.667zM512 192c-119.467 0-213.333 93.867-213.333 213.333s93.867 213.333 213.333 213.333 213.333-93.867 213.333-213.333-93.867-213.333-213.333-213.333zM512 533.333c-72.533 0-128-55.467-128-128s55.467-128 128-128 128 55.467 128 128-55.467 128-128 128z" />
<glyph unicode="&#xe908;" glyph-name="chat" d="M456.533 106.667c-21.333 0-42.667 17.067-42.667 38.4 0 25.6 17.067 42.667 38.4 46.933 179.2 12.8 315.733 162.133 315.733 341.333 0 187.733-153.6 341.333-341.333 341.333s-341.333-153.6-341.333-341.333c0-132.267 76.8-251.733 196.267-307.2 21.333-8.533 29.867-34.133 21.333-55.467s-34.133-29.867-55.467-21.333c-149.333 68.267-247.467 217.6-247.467 384 0 234.667 192 426.667 426.667 426.667s426.667-192 426.667-426.667c0-221.867-174.933-409.6-396.8-426.667 0 0 0 0 0 0zM213.333-64c-17.067 0-34.133 12.8-38.4 29.867s0 38.4 17.067 46.933c8.533 8.533 93.867 76.8 42.667 149.333-12.8 17.067-8.533 46.933 8.533 59.733 12.8 12.8 38.4 8.533 55.467-8.533 42.667-59.733 42.667-119.467 21.333-170.667 42.667 21.333 76.8 64 93.867 119.467 8.533 21.333 29.867 34.133 55.467 29.867 21.333-8.533 34.133-29.867 29.867-51.2-25.6-76.8-93.867-204.8-285.867-204.8zM725.333 51.2c-4.267 0-4.267 0 0 0-85.333 4.267-153.6 38.4-200.533 93.867-17.067 17.067-12.8 46.933 4.267 59.733 17.067 17.067 46.933 12.8 59.733-4.267 34.133-38.4 76.8-59.733 136.533-64 25.6 0 42.667-21.333 38.4-46.933 0-21.333-17.067-38.4-38.4-38.4zM849.067 64c-17.067 0-29.867 8.533-38.4 25.6-8.533 21.333 0 46.933 21.333 55.467 68.267 29.867 110.933 98.133 110.933 174.933 0 85.333-55.467 162.133-140.8 183.467-21.333 8.533-34.133 29.867-29.867 51.2s29.867 34.133 51.2 29.867c119.467-34.133 200.533-145.067 200.533-268.8 0-106.667-64-204.8-157.867-251.733-8.533 0-12.8 0-17.067 0zM878.933-64c-93.867 0-162.133 51.2-187.733 136.533-8.533 21.333 4.267 46.933 29.867 51.2 21.333 8.533 46.933-4.267 55.467-29.867 4.267-12.8 8.533-25.6 17.067-38.4 0 21.333 8.533 46.933 25.6 72.533 12.8 17.067 42.667 21.333 59.733 8.533s21.333-42.667 8.533-59.733c-25.6-34.133 17.067-64 21.333-68.267 12.8-12.8 21.333-29.867 17.067-46.933-12.8-12.8-29.867-25.6-46.933-25.6zM597.333 576h-341.333c-25.6 0-42.667 17.067-42.667 42.667s17.067 42.667 42.667 42.667h341.333c25.6 0 42.667-17.067 42.667-42.667s-17.067-42.667-42.667-42.667zM512 405.333h-256c-25.6 0-42.667 17.067-42.667 42.667s17.067 42.667 42.667 42.667h256c25.6 0 42.667-17.067 42.667-42.667s-17.067-42.667-42.667-42.667z" />
<glyph unicode="&#xe909;" glyph-name="chat2" d="M512 960c140.8 0 268.8-57.6 364.8-147.2v0c89.6-96 147.2-224 147.2-364.8 0-57.6-6.4-108.8-25.6-160-12.8-44.8-38.4-89.6-64-134.4v-179.2c0-19.2-19.2-38.4-38.4-38.4v0h-384c-140.8 0-268.8 57.6-364.8 147.2v0 0c-89.6 96-147.2 224-147.2 364.8s57.6 268.8 147.2 364.8v0c96 89.6 224 147.2 364.8 147.2v0zM256 550.4c-12.8 0-25.6 12.8-25.6 25.6s12.8 25.6 25.6 25.6h512c12.8 0 25.6-12.8 25.6-25.6s-12.8-25.6-25.6-25.6h-512zM256 422.4c-12.8 0-25.6 12.8-25.6 25.6s12.8 25.6 25.6 25.6h512c12.8 0 25.6-12.8 25.6-25.6s-12.8-25.6-25.6-25.6h-512zM256 300.8c-12.8 0-25.6 12.8-25.6 25.6s12.8 19.2 25.6 19.2h512c12.8 0 25.6-12.8 25.6-25.6s-12.8-25.6-25.6-25.6h-512v6.4zM819.2 755.2c-76.8 76.8-185.6 128-307.2 128s-230.4-51.2-307.2-128v0 0c-76.8-76.8-128-185.6-128-307.2s51.2-230.4 128-307.2v0c76.8-76.8 185.6-128 307.2-128h345.6v153.6c0 6.4 0 19.2 6.4 25.6 25.6 38.4 44.8 76.8 64 121.6 12.8 44.8 19.2 89.6 19.2 134.4 0 121.6-51.2 224-128 307.2v0 0z" />
<glyph unicode="&#xe90a;" glyph-name="circle-minus" d="M512 960c-281.6 0-512-230.4-512-512s230.4-512 512-512 512 230.4 512 512c0 281.6-230.4 512-512 512zM512 0c-249.6 0-448 198.4-448 448s198.4 448 448 448 448-198.4 448-448-198.4-448-448-448zM467.2 512h-211.2v-128h512v128h-211.2z" />
<glyph unicode="&#xe90b;" glyph-name="circle-plus" d="M512 960c-281.6 0-512-230.4-512-512s230.4-512 512-512 512 230.4 512 512c0 281.6-230.4 512-512 512zM512 0c-249.6 0-448 198.4-448 448s198.4 448 448 448 448-198.4 448-448-198.4-448-448-448zM576 704h-128v-192h-192v-128h192v-192h128v192h192v128h-192z" />
<glyph unicode="&#xe90c;" glyph-name="clock" d="M512 903.111c-251.335 0-455.111-203.776-455.111-455.111s203.776-455.111 455.111-455.111 455.111 203.776 455.111 455.111-203.776 455.111-455.111 455.111zM512 106.667c-188.245 0-341.333 153.145-341.333 341.333s153.088 341.333 341.333 341.333 341.333-153.145 341.333-341.333-153.088-341.333-341.333-341.333zM626.347 448h-85.902c-15.701 0-28.444 12.743-28.444 28.444v85.902c0 31.118-25.202 56.32-56.32 56.32h-1.138c-31.118 0-56.32-25.202-56.32-56.32v-171.804c0-31.118 25.202-56.32 56.32-56.32h171.804c31.118 0 56.32 25.202 56.32 56.32v1.138c0 31.118-25.202 56.32-56.32 56.32z" />
<glyph unicode="&#xe90d;" glyph-name="credit_card" d="M853.333 750.933h-682.667c-46.933 0-85.333-38.4-85.333-85.333v-426.667c0-46.933 38.4-85.333 85.333-85.333h682.667c46.933 0 85.333 38.4 85.333 85.333v426.667c0 46.933-38.4 85.333-85.333 85.333zM853.333 238.933h-682.667v256h682.667v-256zM853.333 622.933h-682.667v42.667h682.667v-42.667zM256 405.333v-25.6h25.6v25.6h-25.6zM409.6 354.133v-25.6h51.2v25.6h25.6v25.6h25.6v25.6h-51.2v-25.6h-25.6v-25.6c0 0-25.6 0-25.6 0zM512 328.533v25.6h-25.6v-25.6h25.6zM384 328.533v25.6h-51.2v-25.6h51.2zM409.6 379.733h25.6v25.6h-51.2v-51.2h25.6v25.6zM307.2 354.133h25.6v25.6h25.6v25.6h-51.2v-25.6h-25.6v-25.6h-25.6v-25.6h51.2v25.6z" />
<glyph unicode="&#xe90e;" glyph-name="dollar" d="M512-64c-281.6 0-512 230.4-512 512s230.4 512 512 512 512-230.4 512-512-230.4-512-512-512zM512 874.667c-234.667 0-426.667-192-426.667-426.667s192-426.667 426.667-426.667 426.667 192 426.667 426.667-192 426.667-426.667 426.667zM512 405.333c-81.067 0-149.333 51.2-166.4 119.467-4.267 8.533-4.267 17.067-4.267 29.867 0 81.067 76.8 149.333 170.667 149.333s170.667-68.267 170.667-149.333c0-12.8 0-21.333-4.267-29.867-4.267-21.333-29.867-38.4-51.2-29.867-21.333 4.267-38.4 29.867-29.867 51.2 0 4.267 0 8.533 0 12.8 0 29.867-38.4 59.733-85.333 59.733s-85.333-29.867-85.333-64c0-4.267 0-8.533 0-12.8 8.533-29.867 42.667-51.2 85.333-51.2 25.6 0 42.667-17.067 42.667-42.667s-17.067-42.667-42.667-42.667zM512 192c-93.867 0-170.667 68.267-170.667 149.333 0 12.8 0 21.333 4.267 29.867 4.267 21.333 29.867 38.4 51.2 29.867 21.333-4.267 38.4-29.867 29.867-51.2 0-4.267 0-8.533 0-12.8 0-34.133 38.4-64 85.333-64s85.333 29.867 85.333 64c0 4.267 0 8.533 0 12.8-8.533 29.867-42.667 51.2-85.333 51.2-25.6 0-42.667 17.067-42.667 42.667s17.067 42.667 42.667 42.667c81.067 0 149.333-51.2 166.4-119.467 4.267-4.267 4.267-12.8 4.267-25.6 0-81.067-76.8-149.333-170.667-149.333zM512 106.667c-25.6 0-42.667 17.067-42.667 42.667v85.333c0 25.6 17.067 42.667 42.667 42.667s42.667-17.067 42.667-42.667v-85.333c0-25.6-17.067-42.667-42.667-42.667zM512 618.667c-25.6 0-42.667 17.067-42.667 42.667v85.333c0 25.6 17.067 42.667 42.667 42.667s42.667-17.067 42.667-42.667v-85.333c0-25.6-17.067-42.667-42.667-42.667zM640 490.667c-12.8 0-21.333 4.267-29.867 12.8s-12.8 17.067-12.8 29.867 4.267 21.333 12.8 29.867c17.067 17.067 42.667 17.067 59.733 0 8.533-8.533 12.8-17.067 12.8-29.867s-4.267-21.333-12.8-29.867c-8.533-8.533-17.067-12.8-29.867-12.8z" />
<glyph unicode="&#xe90f;" glyph-name="email" d="M896 29.867h-768c-72.533 0-128 55.467-128 128v576c0 72.533 55.467 128 128 128h768c72.533 0 128-55.467 128-128v-576c0-68.267-55.467-128-128-128zM960 733.867c0 34.133-29.867 64-64 64h-768c-34.133 0-64-29.867-64-64v-576c0-34.133 29.867-64 64-64h768c34.133 0 64 29.867 64 64v576zM832 448h-128c-34.133 0-64 29.867-64 64v128c0 34.133 29.867 64 64 64h128c34.133 0 64-29.867 64-64v-128c0-34.133-29.867-64-64-64zM832 605.867c0 17.067-12.8 29.867-34.133 29.867h-64c-17.067 0-34.133-12.8-34.133-29.867v-64c0-17.067 12.8-29.867 34.133-29.867h64c17.067 0 34.133 12.8 34.133 29.867v64zM546.133 192h-384c-21.333 0-34.133 12.8-34.133 29.867s12.8 34.133 34.133 34.133h384c17.067 0 34.133-12.8 34.133-34.133-4.267-17.067-17.067-29.867-34.133-29.867zM546.133 320h-384c-21.333 0-34.133 12.8-34.133 34.133 0 17.067 12.8 29.867 34.133 29.867h384c17.067 0 34.133-12.8 34.133-29.867-4.267-21.333-17.067-34.133-34.133-34.133z" />
<glyph unicode="&#xe910;" glyph-name="entertainment" d="M716.8 160l-51.2 230.4 179.2 153.6-243.2 25.6-89.6 211.2-89.6-217.6-236.8-19.2 179.2-153.6-51.2-230.4 198.4 121.6 204.8-121.6zM512 928c134.4 0 243.2-44.8 339.2-140.8s140.8-204.8 140.8-339.2-44.8-243.2-140.8-339.2-204.8-140.8-339.2-140.8-243.2 44.8-339.2 140.8-140.8 204.8-140.8 339.2 44.8 243.2 140.8 339.2 204.8 140.8 339.2 140.8z" />
<glyph unicode="&#xe911;" glyph-name="envelope" d="M910.222 789.333h-796.444c-31.403 0-56.889-25.486-56.889-56.889v-568.889c0-31.403 25.486-56.889 56.889-56.889h796.444c31.403 0 56.889 25.486 56.889 56.889v568.889c0 31.403-25.486 56.889-56.889 56.889zM831.602 675.556l-319.602-217.941-319.602 217.941h639.204zM853.333 248.889c0-15.701-12.743-28.444-28.444-28.444h-625.778c-15.701 0-28.444 12.743-28.444 28.444v305.095l312.718-211.797c8.818-5.291 18.716-7.908 28.615-7.908s19.797 2.617 28.615 7.908l312.718 211.797v-305.095z" />
<glyph unicode="&#xe912;" glyph-name="exclamation" d="M512-64c-282.752 0-512 229.216-512 512 0 282.752 229.248 512 512 512s512-229.248 512-512c0-282.784-229.248-512-512-512zM512 832c-212.064 0-384-171.936-384-384s171.936-384 384-384 384 171.936 384 384-171.936 384-384 384zM448 320h128v-128h-128v128zM448 704h128v-320h-128v320z" />
<glyph unicode="&#xe913;" glyph-name="facebook" d="M887.467 0h-750.933c-38.4 0-68.267 29.867-68.267 68.267v759.467c0 38.4 29.867 68.267 68.267 68.267h750.933c38.4 0 68.267-29.867 68.267-68.267v-763.733c0-34.133-29.867-64-68.267-64zM448 721.067c-42.667 0-81.067-4.267-106.667-17.067s-46.933-38.4-55.467-55.467c-12.8-21.333-17.067-46.933-17.067-89.6v-38.4h-64v-106.667h68.267v-349.867h140.8v349.867h89.6l25.6 106.667h-115.2v34.133c0 25.6 4.267 42.667 12.8 51.2s25.6 12.8 46.933 12.8c21.333 0 38.4-8.533 59.733-21.333l25.6 98.133c-38.4 12.8-72.533 25.6-110.933 25.6z" />
<glyph unicode="&#xe914;" glyph-name="famliy" d="M448 403.2c70.4 0 140.8-12.8 211.2-44.8 76.8-32 108.8-166.4 108.8-217.6v-179.2h-646.4v179.2c0 51.2 38.4 185.6 108.8 217.6 76.8 32 147.2 44.8 217.6 44.8v0zM787.2 390.4c64-12.8 134.4-25.6 179.2-51.2s51.2-153.6 51.2-192v-179.2h-160v179.2c6.4 51.2-19.2 198.4-70.4 243.2v0zM422.4 480c-51.2 0-96 19.2-134.4 57.6s-57.6 83.2-57.6 134.4c0 51.2 19.2 96 57.6 134.4s83.2 57.6 134.4 57.6c51.2 0 96-19.2 134.4-57.6s57.6-83.2 57.6-134.4c0-51.2-19.2-96-57.6-134.4s-83.2-57.6-134.4-57.6zM723.2 480c-19.2 0-38.4 0-57.6 6.4 38.4 51.2 57.6 115.2 57.6 185.6s-19.2 128-57.6 185.6c19.2 6.4 38.4 6.4 57.6 6.4 51.2 0 96-19.2 134.4-57.6s57.6-83.2 57.6-134.4-19.2-96-51.2-134.4c-38.4-38.4-83.2-57.6-140.8-57.6zM185.6 864v-44.8h-64v-64h-51.2v64h-70.4v44.8h70.4v64h44.8v-70.4h70.4z" />
<glyph unicode="&#xe915;" glyph-name="g" d="M853.333 665.6v-153.6h-64v153.6h-157.867v59.733h157.867v157.867h64v-153.6h157.867v-64h-157.867zM422.4 819.2c55.467-29.867 89.6-81.067 89.6-145.067 0-55.467-34.133-98.133-76.8-132.267s-51.2-46.933-51.2-76.8c0-25.6 46.933-64 68.267-81.067 68.267-46.933 89.6-93.867 89.6-170.667 0-93.867-89.6-200.533-256-200.533-145.067 0-273.067 72.533-273.067 166.4s115.2 187.733 264.533 187.733c17.067 0 29.867 0 46.933 0-21.333 21.333-34.133 42.667-34.133 72.533 0 17.067 4.267 34.133 12.8 51.2-8.533 0-17.067 0-25.6 0-119.467 0-200.533 89.6-200.533 192s110.933 196.267 230.4 196.267c64 0 264.533 0 264.533 0l-59.733-64h-89.6zM302.933 341.333c-102.4 0-192-59.733-192-136.533s72.533-132.267 174.933-132.267c140.8 0 192 51.2 192 128 0 8.533 0 17.067-4.267 25.6-12.8 42.667-51.2 64-106.667 102.4-17.067 12.8-38.4 12.8-64 12.8zM418.133 669.867c-12.8 89.6-81.067 162.133-149.333 162.133s-115.2-64-102.4-153.6c12.8-89.6 76.8-162.133 145.067-162.133 68.267-4.267 115.2 68.267 106.667 153.6z" />
<glyph unicode="&#xe916;" glyph-name="google-plus2" d="M0.8 90.336c-0.256 2.528-0.448 5.056-0.576 7.616 0.128-2.56 0.352-5.088 0.576-7.616zM235.904 394.848c92-2.752 153.728 92.704 137.856 213.184s-103.392 217.184-195.392 219.936c-92.032 2.72-153.728-89.472-137.856-209.984 15.872-120.48 103.36-220.384 195.392-223.136zM1024 704v85.312c0 93.888-76.768 170.688-170.656 170.688h-682.656c-92.288 0-168-74.24-170.56-165.92 58.368 51.392 139.328 94.304 222.88 94.304 89.312 0 357.248 0 357.248 0l-79.936-67.616h-113.28c75.136-28.8 115.168-116.128 115.168-205.728 0-75.232-41.824-139.968-100.896-185.984-57.632-44.896-68.576-63.712-68.576-101.888 0-32.576 61.76-88 94.016-110.784 94.368-66.528 124.928-128.32 124.928-231.456 0-16.416-2.048-32.832-6.080-48.96h307.744c93.888 0 170.656 76.736 170.656 170.688v533.312h-192v-192h-64v192h-192v64h192v192h64v-192h192zM185.888 194.048c21.6 0 41.408 0.576 61.952 0.576-27.136 26.336-48.64 58.592-48.64 98.368 0 23.616 7.552 46.336 18.144 66.528-10.784-0.768-21.792-0.992-33.12-0.992-74.368 0-137.504 24.064-184.192 63.84v-268.96c53.44 25.376 116.896 40.608 185.888 40.608zM3.424 72.736c-1.12 5.472-1.952 11.008-2.528 16.64 0.576-5.632 1.44-11.168 2.528-16.64zM455.456 7.168c-15.072 58.816-68.448 87.968-142.88 139.552-27.072 8.736-56.896 13.888-88.896 14.208-89.632 0.96-173.12-34.944-220.224-88.384 15.936-77.696 85.024-136.544 167.232-136.544h286.432c1.824 11.136 2.688 22.624 2.688 34.432 0 12.544-1.536 24.8-4.384 36.736z" />
<glyph unicode="&#xe917;" glyph-name="headset" d="M256 149.333h-85.333c-93.867 0-170.667 76.8-170.667 170.667v42.667c0 93.867 76.8 170.667 170.667 170.667h85.333c25.6 0 42.667-17.067 42.667-42.667v-298.667c0-25.6-17.067-42.667-42.667-42.667zM170.667 448c-46.933 0-85.333-38.4-85.333-85.333v-42.667c0-46.933 38.4-85.333 85.333-85.333h42.667v213.333h-42.667zM853.333 149.333h-85.333c-25.6 0-42.667 17.067-42.667 42.667v298.667c0 25.6 17.067 42.667 42.667 42.667h85.333c93.867 0 170.667-76.8 170.667-170.667v-42.667c0-93.867-76.8-170.667-170.667-170.667zM810.667 234.667h42.667c46.933 0 85.333 38.4 85.333 85.333v42.667c0 46.933-38.4 85.333-85.333 85.333h-42.667v-213.333zM891.733 443.733c-4.267 0-4.267 0-8.533 0-21.333 4.267-38.4 25.6-34.133 46.933 0 12.8 4.267 25.6 4.267 42.667 0 187.733-153.6 341.333-341.333 341.333s-341.333-153.6-341.333-341.333c0-17.067 0-29.867 4.267-42.667 4.267-21.333-12.8-46.933-34.133-46.933-21.333-4.267-46.933 12.8-46.933 34.133-8.533 17.067-8.533 34.133-8.533 55.467 0 234.667 192 426.667 426.667 426.667s426.667-192 426.667-426.667c0-21.333 0-38.4-4.267-55.467-4.267-21.333-21.333-34.133-42.667-34.133zM512-64c-93.867 0-128 76.8-128 128s34.133 128 128 128 128-76.8 128-128c0-8.533 0-17.067-4.267-25.6 93.867 25.6 157.867 85.333 192 170.667 8.533 21.333 34.133 34.133 55.467 25.6s34.133-34.133 25.6-55.467c-42.667-110.933-149.333-243.2-396.8-243.2zM512 106.667c-34.133 0-42.667-25.6-42.667-42.667s8.533-42.667 42.667-42.667 42.667 25.6 42.667 42.667c0 17.067-8.533 42.667-42.667 42.667z" />
<glyph unicode="&#xe918;" glyph-name="iconfont-iconcartadd" d="M816 488c114.88 0 208 93.12 208 208s-93.12 208-208 208-208-93.12-208-208 93.12-208 208-208zM720 744h48v48c0 26.496 21.504 48 48 48s48-21.504 48-48v-48h48c26.496 0 48-21.504 48-48s-21.504-48-48-48h-48v-48c0-26.496-21.504-48-48-48s-48 21.504-48 48v48h-48c-26.496 0-48 21.504-48 48s21.504 48 48 48zM896 184h-451.52l-23.936 68.48 414.72 27.648c18.112 1.216 33.472 12.416 40.576 28.224v0l77.312 171.712c-35.904-22.848-77.888-36.864-122.944-39.296l-30.016-66.752-412.48-27.52-88.896 253.504h279.936c-11.968 29.696-18.752 62.016-18.752 96h-294.784l-27.904 79.872-0.192-0.064c-6.528 18.688-24.192 32.192-45.12 32.192h-144c-26.496 0-48-21.504-48-48s21.504-48 48-48h109.952l184.832-528h-86.784c-53.056 0-96-43.008-96-96s42.944-96 96-96 96 43.008 96 96h448c0-52.992 43.008-96 96-96s96 43.008 96 96-43.008 96-96 96z" />
<glyph unicode="&#xe919;" glyph-name="iconfont-shoppingcartok" d="M816 480c114.88 0 208 93.12 208 208s-93.12 208-208 208-208-93.12-208-208 93.12-208 208-208zM720 720c13.248 0 25.248-5.376 33.936-14.064l30.064-30.048 94.064 94.064c8.688 8.672 20.688 14.048 33.936 14.048 26.512 0 48-21.488 48-48 0-13.248-5.376-25.248-14.064-33.936l-128-128c-8.688-8.688-20.688-14.064-33.936-14.064s-25.248 5.376-33.936 14.064l-64 64c-8.688 8.688-14.064 20.688-14.064 33.936 0 26.512 21.488 48 48 48zM896 176h-451.552l-23.952 68.464 414.704 27.664c18.112 1.184 33.472 12.416 40.576 28.192v0l77.28 171.728c-35.936-22.832-77.856-36.848-122.976-39.312l-30.032-66.736-412.464-27.504-88.72 253.504h279.92c-12.016 29.664-18.784 62.016-18.784 96h-294.752l-27.952 79.856-0.176-0.064c-6.544 18.704-24.176 32.208-45.12 32.208h-144c-26.512 0-48-21.488-48-48s21.488-48 48-48h109.952l184.8-528h-86.752c-53.024 0-96-42.976-96-96s42.976-96 96-96 96 42.976 96 96h448c0-53.024 42.976-96 96-96s96 42.976 96 96-42.976 96-96 96z" />
<glyph unicode="&#xe91a;" glyph-name="info" d="M448 656c0 26.4 21.6 48 48 48h32c26.4 0 48-21.6 48-48v-32c0-26.4-21.6-48-48-48h-32c-26.4 0-48 21.6-48 48v32zM640 192h-256v64h64v192h-64v64h192v-256h64zM512 960c-282.784 0-512-229.216-512-512s229.216-512 512-512 512 229.216 512 512-229.216 512-512 512zM512 32c-229.76 0-416 186.24-416 416s186.24 416 416 416 416-186.24 416-416-186.24-416-416-416z" />
<glyph unicode="&#xe91b;" glyph-name="instagram" d="M844.8 896h-665.6c-59.733 0-110.933-46.933-110.933-110.933v-674.133c0-59.733 51.2-110.933 110.933-110.933h665.6c59.733 0 110.933 51.2 110.933 115.2v669.867c0 59.733-51.2 110.933-110.933 110.933zM682.667 750.933c0 25.6 17.067 46.933 42.667 46.933h89.6c38.4 0 38.4-46.933 38.4-46.933v-89.6c0-25.6-17.067-46.933-42.667-46.933h-85.333c-21.333 0-42.667 21.333-42.667 46.933v89.6zM379.733 571.733c34.133 38.4 81.067 64 132.267 64 42.667 0 81.067-17.067 110.933-42.667 21.333-12.8 34.133-34.133 42.667-55.467 12.8-25.6 21.333-51.2 21.333-81.067 0-72.533-46.933-136.533-106.667-162.133-21.333-8.533-42.667-12.8-68.267-12.8 0 0 0 0 0 0s0 0 0 0c-98.133 0-179.2 81.067-179.2 179.2 4.267 38.4 21.333 76.8 46.933 110.933 0 0 0 0 0 0zM849.067 145.067c0-21.333-17.067-42.667-42.667-42.667h-597.333c-21.333 0-42.667 17.067-42.667 42.667v375.467h81.067c-4.267-21.333-8.533-46.933-8.533-72.533 0-153.6 123.733-273.067 273.067-273.067s273.067 119.467 273.067 273.067c0 25.6-4.267 51.2-8.533 72.533h72.533v-375.467z" />
<glyph unicode="&#xe91c;" glyph-name="install" d="M384 960c153.6 0 275.2-128 275.2-275.2 0-76.8-32-147.2-83.2-198.4v0 0 0 0c19.2-19.2 38.4-38.4 57.6-51.2 6.4 0 19.2 6.4 25.6 6.4v32c0 12.8 12.8 25.6 25.6 25.6v0h83.2c12.8 0 25.6-12.8 25.6-25.6v0-25.6c6.4 0 19.2-6.4 25.6-6.4v0c6.4-6.4 12.8-6.4 25.6-12.8l19.2 19.2c6.4 6.4 25.6 6.4 32 0l51.2-64c6.4-6.4 6.4-25.6 0-32l-19.2-19.2c6.4-6.4 6.4-19.2 12.8-25.6v0c6.4-6.4 6.4-19.2 6.4-25.6h25.6c12.8 0 25.6-12.8 25.6-25.6v0-83.2c0-12.8-12.8-25.6-25.6-25.6v0h-25.6c0-6.4-6.4-19.2-6.4-25.6v0c-6.4-6.4-6.4-12.8-12.8-25.6l19.2-19.2c6.4-6.4 6.4-25.6 0-32l-57.6-57.6c-6.4-6.4-25.6-6.4-32 0l-25.6 19.2c-6.4-6.4-12.8-6.4-25.6-12.8v0c-6.4-6.4-19.2-6.4-25.6-6.4v-25.6c0-12.8-12.8-25.6-25.6-25.6v0h-83.2c-12.8 0-25.6 12.8-25.6 25.6v0 25.6c-6.4 0-19.2 6.4-25.6 6.4v0c-6.4 6.4-12.8 6.4-25.6 12.8l-12.8-12.8v-19.2c12.8-19.2-6.4-38.4-32-38.4v0h-332.8c-25.6 0-38.4 19.2-38.4 38.4v0 38.4h-76.8c0 0-6.4 0-6.4 0-19.2 6.4-38.4 12.8-51.2 32s-19.2 38.4-19.2 57.6v89.6c0 38.4 6.4 83.2 25.6 115.2 25.6 70.4 89.6 121.6 140.8 179.2v0 0c-51.2 51.2-83.2 121.6-83.2 198.4 0 147.2 121.6 275.2 275.2 275.2v0zM723.2 320c25.6 0 57.6-12.8 76.8-32v0c19.2-19.2 32-44.8 32-76.8s-12.8-57.6-32-76.8v0c-19.2-19.2-44.8-32-70.4-32s-57.6 12.8-70.4 32c-19.2 19.2-32 44.8-32 76.8 0 25.6 12.8 57.6 32 76.8v0 0c6.4 19.2 32 32 64 32v0zM761.6 256c-12.8 12.8-25.6 19.2-38.4 19.2s-32-6.4-38.4-19.2v0c-12.8-12.8-19.2-25.6-19.2-38.4s6.4-32 19.2-38.4c12.8-12.8 25.6-19.2 38.4-19.2s25.6 6.4 38.4 12.8v0c12.8 12.8 19.2 25.6 19.2 38.4-6.4 19.2-12.8 32-19.2 44.8v0zM531.2 422.4l-19.2 12.8c-38.4-19.2-76.8-32-128-32s-89.6 12.8-128 32c-44.8-44.8-108.8-96-134.4-160-12.8-25.6-19.2-57.6-19.2-83.2v-83.2c0-6.4 0-6.4 0-6.4h102.4v108.8c0 12.8 12.8 25.6 25.6 25.6s25.6-12.8 25.6-25.6v-192h256v12.8l-19.2 19.2c-6.4 6.4-6.4 25.6 0 32l19.2 19.2c0 6.4-6.4 12.8-12.8 25.6v0c-6.4 6.4-6.4 19.2-6.4 25.6h-25.6c-12.8 0-25.6 12.8-25.6 25.6v0 76.8c0 12.8 12.8 25.6 25.6 25.6v0h25.6c0 6.4 6.4 19.2 6.4 25.6v0c6.4 6.4 12.8 12.8 12.8 25.6l-19.2 19.2c-6.4 6.4-6.4 25.6 0 32l38.4 38.4zM793.6 390.4c-12.8 6.4-25.6 6.4-32 12.8-12.8 0-19.2 12.8-19.2 25.6v19.2h-38.4v-25.6c0-12.8-6.4-19.2-19.2-25.6-12.8 0-25.6-6.4-38.4-12.8v0 0c-6.4 0-19.2-6.4-32-12.8-6.4-6.4-25.6-6.4-32 0l-12.8 19.2-25.6-25.6 19.2-19.2c6.4-6.4 6.4-19.2 0-32s-12.8-19.2-19.2-32v0c-6.4-12.8-6.4-25.6-12.8-32 0-12.8-12.8-19.2-25.6-19.2h-19.2v-32h25.6c12.8 0 19.2-6.4 25.6-19.2 0-12.8 6.4-25.6 12.8-38.4v0 0c6.4-12.8 12.8-19.2 19.2-32 6.4-6.4 6.4-25.6 0-32l-25.6-12.8 25.6-25.6 12.8 19.2c6.4 6.4 19.2 12.8 32 0 12.8-6.4 19.2-12.8 32-19.2v0c12.8-6.4 25.6-6.4 32-12.8 12.8 0 19.2-12.8 19.2-25.6v-25.6h32v25.6c0 12.8 6.4 19.2 19.2 25.6 12.8 0 25.6 6.4 38.4 12.8v0 0c12.8 6.4 19.2 12.8 32 19.2 6.4 6.4 25.6 6.4 32 0l19.2-19.2 25.6 25.6-19.2 19.2c-6.4 6.4-12.8 19.2 0 32 6.4 12.8 12.8 19.2 19.2 32v0c6.4 12.8 6.4 25.6 12.8 32 0 12.8 12.8 19.2 25.6 19.2h25.6v32h-25.6c-12.8 0-19.2 6.4-25.6 19.2 0 12.8-6.4 25.6-12.8 38.4v0 0c-6.4 12.8-12.8 19.2-19.2 32s-6.4 25.6 0 32l19.2 12.8-25.6 25.6-19.2-19.2c-6.4-6.4-19.2-6.4-32 0-6.4 6.4-12.8 12.8-25.6 19.2v0 0zM384 876.8c-108.8 0-192-83.2-192-192 0-115.2 89.6-198.4 192-198.4 108.8 0 198.4 89.6 198.4 198.4s-89.6 192-198.4 192v0z" />
<glyph unicode="&#xe91d;" glyph-name="Internet" d="M358.4 544v0h627.2c19.2 0 38.4-19.2 38.4-38.4v0-441.6c0-19.2-19.2-38.4-38.4-38.4v0h-275.2v-38.4h115.2c12.8 0 25.6-12.8 25.6-25.6s-12.8-25.6-25.6-25.6h-300.8c-12.8 0-25.6 12.8-25.6 25.6s12.8 25.6 25.6 25.6h108.8v38.4h-275.2c-25.6 0-38.4 19.2-38.4 38.4v0 441.6c0 25.6 12.8 38.4 38.4 38.4v0zM499.2 953.6c-134.4 0-262.4-57.6-352-147.2s-147.2-217.6-147.2-352c0-140.8 57.6-262.4 147.2-352 19.2-19.2 44.8-38.4 70.4-57.6 38.4-32 83.2 32 44.8 64-102.4 76.8-172.8 192-179.2 326.4h147.2c0-25.6 0-51.2 6.4-76.8s44.8-25.6 44.8 0v0c0 0 0 0 0 0-19.2 108.8-6.4 243.2 32 345.6 6.4 0 12.8-6.4 19.2-6.4 44.8-19.2 96-25.6 147.2-32v-64c0-32 44.8-32 44.8 0v64c51.2 0 102.4 12.8 147.2 32 6.4 0 12.8 6.4 19.2 6.4 12.8-32 19.2-64 25.6-102.4 6.4-32 51.2-25.6 51.2 0-6.4 44.8-19.2 83.2-32 121.6 19.2 12.8 38.4 25.6 57.6 38.4 6.4-6.4 6.4-6.4 12.8-12.8 38.4-38.4 76.8-89.6 96-147.2 19.2-44.8 89.6-19.2 70.4 25.6-25.6 64-64 128-115.2 172.8-89.6 96-217.6 153.6-358.4 153.6v0zM755.2 793.6c-12.8-6.4-25.6-19.2-38.4-25.6-6.4 6.4-12.8 12.8-12.8 25.6-12.8 19.2-19.2 38.4-32 51.2 25.6-12.8 57.6-32 83.2-51.2v0zM569.6 870.4c32-19.2 64-57.6 89.6-102.4 6.4-6.4 6.4-12.8 12.8-19.2-6.4 0-12.8-6.4-19.2-6.4-38.4-12.8-83.2-25.6-128-25.6v160c12.8 0 32-6.4 44.8-6.4v0zM480 876.8v-160c-44.8 0-89.6 12.8-128 25.6-6.4 0-12.8 6.4-19.2 6.4 0 6.4 6.4 12.8 6.4 19.2 25.6 44.8 57.6 83.2 89.6 102.4 19.2 0 32 6.4 51.2 6.4v0zM332.8 844.8c-12.8-19.2-19.2-38.4-32-51.2-6.4-12.8-6.4-19.2-12.8-25.6-12.8 6.4-25.6 12.8-38.4 25.6 25.6 19.2 51.2 38.4 83.2 51.2v0zM211.2 761.6c19.2-12.8 38.4-25.6 57.6-38.4-25.6-70.4-44.8-153.6-44.8-249.6h-147.2c6.4 108.8 51.2 204.8 121.6 281.6 6.4 0 12.8 6.4 12.8 6.4v0zM947.2 467.2h-550.4v-364.8h550.4v364.8z" />
<glyph unicode="&#xe91e;" glyph-name="list" d="M256 704h128v-128h-128zM256 512h128v-128h-128zM256 320h128v-128h-128zM512 320h256v-128h-256zM960 960h-896c-35.36 0-64-28.608-64-64v-896c0-35.36 28.608-64 64-64h896c35.36 0 64 28.64 64 64v896c0 35.36-28.64 64-64 64zM896 64h-768v768h768v-768zM512 512h256v-128h-256zM512 704h256v-128h-256z" />
<glyph unicode="&#xe91f;" glyph-name="mail" d="M981.333 106.667h-938.667c-25.6 0-42.667 17.067-42.667 42.667v597.333c0 25.6 17.067 42.667 42.667 42.667h938.667c25.6 0 42.667-17.067 42.667-42.667v-597.333c0-25.6-17.067-42.667-42.667-42.667zM85.333 192h853.333v512h-853.333v-512zM512 405.333c-12.8 0-29.867 8.533-34.133 21.333-12.8 21.333-8.533 46.933 12.8 59.733l469.333 298.667c21.333 12.8 46.933 8.533 59.733-12.8s8.533-46.933-12.8-59.733l-469.333-298.667c-8.533-4.267-17.067-8.533-25.6-8.533zM512 405.333c-8.533 0-17.067 4.267-21.333 8.533l-469.333 298.667c-21.333 12.8-25.6 38.4-12.8 55.467 12.8 21.333 38.4 25.6 55.467 12.8l469.333-298.667c21.333-12.8 25.6-38.4 12.8-59.733-4.267-8.533-21.333-17.067-34.133-17.067z" />
<glyph unicode="&#xe920;" glyph-name="notification" d="M512 864c-111.104 0-215.584-43.264-294.144-121.856s-121.856-183.040-121.856-294.144c0-111.104 43.264-215.584 121.856-294.144s183.040-121.856 294.144-121.856c111.104 0 215.584 43.264 294.144 121.856s121.856 183.040 121.856 294.144c0 111.104-43.264 215.584-121.856 294.144s-183.040 121.856-294.144 121.856zM512 960v0c282.784 0 512-229.216 512-512s-229.216-512-512-512c-282.784 0-512 229.216-512 512s229.216 512 512 512zM448 256h128v-128h-128zM448 768h128v-384h-128z" />
<glyph unicode="&#xe921;" glyph-name="phone" d="M768-29.867c-59.733 0-128 17.067-204.8 55.467-93.867 46.933-187.733 115.2-277.333 204.8-85.333 85.333-157.867 183.467-204.8 277.333-72.533 149.333-76.8 273.067-4.267 341.333 17.067 17.067 42.667 17.067 59.733 0s17.067-42.667 0-59.733c-42.667-42.667-34.133-136.533 21.333-247.467 42.667-85.333 106.667-174.933 187.733-256s170.667-145.067 256-187.733c110.933-55.467 204.8-64 247.467-21.333 17.067 17.067 42.667 17.067 59.733 0s17.067-42.667 0-59.733c-34.133-29.867-81.067-46.933-140.8-46.933zM332.8 503.467c-17.067 0-29.867 8.533-38.4 25.6-12.8 21.333-4.267 46.933 17.067 55.467l98.133 46.933c17.067 8.533 38.4 29.867 34.133 55.467 0 12.8-8.533 21.333-17.067 29.867l-140.8 145.067c-12.8 12.8-34.133 17.067-55.467 12.8-8.533-4.267-17.067-8.533-25.6-12.8l-68.267-72.533c-17.067-17.067-42.667-17.067-59.733 0s-17.067 42.667 0 59.733l68.267 68.267c17.067 17.067 38.4 29.867 59.733 34.133 51.2 12.8 102.4 0 140.8-34.133l140.8-140.8c21.333-21.333 34.133-51.2 38.4-81.067 8.533-55.467-25.6-115.2-81.067-145.067l-98.133-46.933c0 4.267-8.533 0-12.8 0zM874.667 8.533c-12.8 0-21.333 4.267-29.867 12.8-17.067 17.067-17.067 42.667 0 59.733l68.267 68.267c8.533 8.533 12.8 12.8 12.8 25.6 4.267 21.333 0 42.667-12.8 55.467l-140.8 140.8c-8.533 8.533-21.333 12.8-29.867 17.067-25.6 4.267-46.933-12.8-55.467-34.133l-46.933-98.133c-8.533-21.333-34.133-29.867-55.467-17.067-21.333 8.533-29.867 34.133-17.067 55.467l46.933 98.133c29.867 55.467 85.333 89.6 145.067 81.067 29.867-4.267 55.467-17.067 76.8-38.4l140.8-140.8c38.4-38.4 51.2-89.6 34.133-140.8-8.533-21.333-17.067-42.667-34.133-59.733l-72.533-72.533c-8.533-8.533-17.067-12.8-29.867-12.8zM601.6 234.667c-8.533 0-17.067 4.267-25.6 8.533-51.2 38.4-102.4 81.067-153.6 128-51.2 51.2-93.867 102.4-128 153.6-12.8 17.067-8.533 42.667 12.8 59.733 21.333 12.8 46.933 8.533 59.733-8.533 34.133-46.933 72.533-98.133 119.467-140.8s93.867-85.333 140.8-119.467c21.333-12.8 25.6-38.4 8.533-59.733-4.267-17.067-17.067-21.333-34.133-21.333z" />
<glyph unicode="&#xe922;" glyph-name="pin-2" d="M512-64c-119.467 0-384 371.2-384 640 0 213.333 170.667 384 384 384s384-170.667 384-384c0-170.667-102.4-349.867-145.067-418.133-25.6-38.4-145.067-221.867-238.933-221.867zM512 874.667c-166.4 0-298.667-132.267-298.667-298.667 0-238.933 238.933-541.867 298.667-554.667 59.733 12.8 298.667 315.733 298.667 554.667 0 166.4-132.267 298.667-298.667 298.667zM512 362.667c-119.467 0-213.333 93.867-213.333 213.333s93.867 213.333 213.333 213.333 213.333-93.867 213.333-213.333-93.867-213.333-213.333-213.333zM512 704c-72.533 0-128-55.467-128-128s55.467-128 128-128 128 55.467 128 128-55.467 128-128 128z" />
<glyph unicode="&#xe923;" glyph-name="pin" d="M512 106.667c-17.067 0-29.867 8.533-38.4 21.333l-221.867 388.267c-76.8 136.533-34.133 311.467 102.4 392.533 102.4 64 221.867 59.733 315.733 4.267 136.533-85.333 183.467-260.267 102.4-396.8l-221.867-388.267c-8.533-12.8-21.333-21.333-38.4-21.333zM512 870.4c-38.4 0-76.8-12.8-110.933-29.867-98.133-59.733-128-183.467-72.533-281.6l183.467-324.267 183.467 324.267c55.467 98.133 25.6 221.867-72.533 281.6-34.133 21.333-72.533 29.867-110.933 29.867zM512 533.333c-72.533 0-128 55.467-128 128s55.467 128 128 128 128-55.467 128-128-55.467-128-128-128zM512 704c-25.6 0-42.667-17.067-42.667-42.667s17.067-42.667 42.667-42.667 42.667 17.067 42.667 42.667-17.067 42.667-42.667 42.667zM512-64c-170.667 0-341.333 59.733-341.333 170.667 0 89.6 115.2 157.867 290.133 170.667l4.267-85.333c-136.533-12.8-209.067-59.733-209.067-85.333 0-29.867 98.133-85.333 256-85.333s256 55.467 256 85.333c0 25.6-72.533 72.533-209.067 85.333l4.267 85.333c174.933-12.8 290.133-81.067 290.133-170.667 0-110.933-170.667-170.667-341.333-170.667z" />
<glyph unicode="&#xe924;" glyph-name="question" d="M512-64c-281.6 0-512 230.4-512 512s230.4 512 512 512 512-230.4 512-512-230.4-512-512-512zM512 874.667c-234.667 0-426.667-192-426.667-426.667s192-426.667 426.667-426.667 426.667 192 426.667 426.667-192 426.667-426.667 426.667zM512 277.333c-25.6 0-42.667 17.067-42.667 42.667v29.867c0 64 34.133 119.467 85.333 149.333 34.133 17.067 51.2 55.467 42.667 89.6-4.267 34.133-34.133 64-68.267 68.267-25.6 4.267-51.2 0-72.533-17.067-17.067-12.8-29.867-38.4-29.867-64s-17.067-42.667-42.667-42.667-42.667 17.067-42.667 42.667c0 51.2 21.333 98.133 59.733 132.267s89.6 46.933 140.8 38.4c68.267-12.8 123.733-68.267 136.533-136.533 12.8-72.533-21.333-145.067-85.333-179.2-25.6-12.8-38.4-42.667-38.4-76.8v-34.133c0-25.6-17.067-42.667-42.667-42.667zM554.667 192c0-23.564-19.103-42.667-42.667-42.667s-42.667 19.103-42.667 42.667c0 23.564 19.103 42.667 42.667 42.667s42.667-19.103 42.667-42.667zM512 128c-34.133 0-64 29.867-64 64s29.867 64 64 64 64-29.867 64-64-29.867-64-64-64zM512 213.333c-12.8 0-21.333-8.533-21.333-21.333s8.533-21.333 21.333-21.333 21.333 8.533 21.333 21.333-8.533 21.333-21.333 21.333z" />
<glyph unicode="&#xe925;" glyph-name="question2" d="M512-64c-282.752 0-512 229.216-512 512 0 282.752 229.248 512 512 512s512-229.248 512-512c0-282.784-229.248-512-512-512zM512 832c-212.064 0-384-171.936-384-384s171.936-384 384-384 384 171.936 384 384-171.936 384-384 384zM512 704c-106.048 0-192-85.984-192-192h128c0 35.328 28.64 64 64 64s64-28.672 64-64-28.64-64-64-64c-2.464 0-10.208 0-32 0-17.696 0-32-14.336-32-32v-96h128v11.744c74.368 26.432 128 96.768 128 180.256 0 106.016-85.952 192-192 192zM512 256h-64v-64h128v64z" />
<glyph unicode="&#xe926;" glyph-name="recommendation" d="M174.933 460.8c-17.067 0-34.133 17.067-34.133 34.133s17.067 34.133 34.133 34.133h119.467c98.133 0 166.4 132.267 166.4 217.6 0 12.8 0 25.6-4.267 38.4-8.533 25.6-4.267 51.2 8.533 72.533v0c4.267 17.067 17.067 29.867 34.133 38.4s34.133 12.8 51.2 12.8c25.6 0 51.2-8.533 72.533-29.867 51.2-51.2 42.667-128 34.133-196.267-4.267-17.067-4.267-34.133-4.267-46.933-4.267-51.2 8.533-59.733 59.733-59.733h98.133c81.067 0 119.467-93.867 76.8-153.6v0 0 0c29.867-42.667 21.333-98.133-17.067-132.267 25.6-46.933 4.267-106.667-46.933-128 21.333-59.733-25.6-128-89.6-128v0h-217.6c-21.333 0-38.4 0-59.733 4.267s-38.4 8.533-59.733 12.8c-29.867 8.533-51.2 17.067-68.267 25.6-42.667 17.067-68.267 25.6-153.6 25.6-17.067 0-34.133 17.067-34.133 34.133s17.067 34.133 34.133 34.133c98.133 0 132.267-12.8 179.2-29.867 17.067-8.533 38.4-12.8 64-21.333 17.067-4.267 29.867-8.533 46.933-8.533s34.133-4.267 51.2-4.267v0 0h217.6c29.867 0 38.4 38.4 12.8 51.2-12.8 4.267-21.333 17.067-21.333 34.133s17.067 34.133 34.133 34.133h29.867c29.867 0 38.4 38.4 12.8 51.2-12.8 4.267-21.333 17.067-21.333 34.133s17.067 34.133 34.133 34.133h-4.267c29.867 0 38.4 42.667 8.533 51.2v0 0c-12.8 4.267-21.333 12.8-25.6 25.6-4.267 17.067 4.267 38.4 25.6 42.667 29.867 8.533 25.6 51.2-8.533 51.2h-102.4c-89.6 0-132.267 42.667-128 132.267 0 17.067 4.267 34.133 4.267 55.467 8.533 51.2 12.8 110.933-12.8 140.8-8.533 8.533-17.067 12.8-25.6 12.8-4.267 0-12.8 0-17.067-4.267-4.267 0-8.533-4.267-8.533-8.533v0c-4.267-4.267-4.267-12.8 0-25.6 4.267-17.067 8.533-34.133 8.533-55.467 0-123.733-98.133-285.867-234.667-285.867h-119.467v-17.067z" />
<glyph unicode="&#xe927;" glyph-name="scales" d="M170.667 277.333c-93.867 0-170.667 76.8-170.667 170.667 0 76.8 110.933 345.6 132.267 401.067 4.267 17.067 21.333 25.6 38.4 25.6s34.133-8.533 38.4-25.6c21.333-55.467 132.267-324.267 132.267-401.067 0-93.867-76.8-170.667-170.667-170.667zM170.667 716.8c-42.667-115.2-85.333-234.667-85.333-268.8 0-46.933 38.4-85.333 85.333-85.333s85.333 38.4 85.333 85.333c0 34.133-42.667 153.6-85.333 268.8zM853.333 277.333c-93.867 0-170.667 76.8-170.667 170.667 0 76.8 110.933 345.6 132.267 401.067 4.267 17.067 21.333 25.6 38.4 25.6s34.133-8.533 38.4-25.6c21.333-55.467 132.267-324.267 132.267-401.067 0-93.867-76.8-170.667-170.667-170.667zM853.333 716.8c-42.667-110.933-85.333-234.667-85.333-268.8 0-46.933 38.4-85.333 85.333-85.333s85.333 38.4 85.333 85.333c0 34.133-42.667 153.6-85.333 268.8zM853.333 789.333h-682.667c-25.6 0-42.667 17.067-42.667 42.667s17.067 42.667 42.667 42.667h682.667c25.6 0 42.667-17.067 42.667-42.667s-17.067-42.667-42.667-42.667zM512 21.333c-25.6 0-42.667 17.067-42.667 42.667v768c0 25.6 17.067 42.667 42.667 42.667s42.667-17.067 42.667-42.667v-768c0-25.6-17.067-42.667-42.667-42.667zM768 21.333h-512c-25.6 0-42.667 17.067-42.667 42.667s17.067 42.667 42.667 42.667h512c25.6 0 42.667-17.067 42.667-42.667s-17.067-42.667-42.667-42.667zM298.667 405.333h-256c-25.6 0-42.667 17.067-42.667 42.667s17.067 42.667 42.667 42.667h256c25.6 0 42.667-17.067 42.667-42.667s-17.067-42.667-42.667-42.667zM981.333 405.333h-256c-25.6 0-42.667 17.067-42.667 42.667s17.067 42.667 42.667 42.667h256c25.6 0 42.667-17.067 42.667-42.667s-17.067-42.667-42.667-42.667z" />
<glyph unicode="&#xe928;" glyph-name="setting" d="M857.6 147.2c6.4-6.4 6.4-25.6 0-32s-25.6-6.4-32 0l-147.2 140.8c-6.4 6.4-6.4 25.6 0 32s25.6 6.4 32 0l147.2-140.8zM793.6 960c12.8 0 32 0 44.8-6.4 12.8 0 32-6.4 44.8-12.8 19.2-6.4 32-32 19.2-51.2 0-6.4-6.4-6.4-6.4-12.8v0c-32-32-57.6-57.6-89.6-89.6l12.8-38.4h12.8l19.2-6.4c32 32 57.6 57.6 89.6 89.6 12.8 12.8 38.4 12.8 57.6 0 6.4-6.4 6.4-12.8 12.8-19.2 6.4-12.8 6.4-25.6 12.8-38.4v0 0c0-12.8 0-32 0-44.8 0-64-25.6-121.6-70.4-160v0c-44.8-44.8-102.4-70.4-160-70.4-6.4 0-6.4 0-12.8 0l-44.8-44.8 236.8-236.8c32-32 44.8-70.4 44.8-115.2 0-38.4-12.8-83.2-44.8-115.2v0 0c-32-32-70.4-44.8-115.2-44.8-38.4 0-83.2 12.8-115.2 44.8l-236.8 236.8-243.2-243.2c-51.2-51.2-115.2-57.6-166.4-32-19.2 6.4-38.4 19.2-51.2 32v0 0c-12.8 12.8-25.6 32-32 51.2-19.2 51.2-19.2 115.2 32 166.4v0l275.2 275.2-102.4 96-89.6 25.6c-12.8 0-19.2 12.8-25.6 19.2l-83.2 204.8c-6.4 12.8-6.4 32 6.4 44.8l38.4 38.4 38.4 32c6.4 12.8 25.6 19.2 38.4 12.8l204.8-83.2c6.4-12.8 19.2-19.2 19.2-32l25.6-89.6 102.4-102.4 70.4 70.4c0 6.4 0 6.4 0 12.8v0c0 64 25.6 121.6 70.4 160v0c38.4 51.2 96 76.8 160 76.8v0zM678.4 403.2l-115.2-115.2 236.8-236.8c19.2-19.2 38.4-25.6 57.6-25.6s44.8 6.4 57.6 25.6v0c19.2 19.2 25.6 38.4 25.6 57.6s-6.4 38.4-25.6 57.6v0l-236.8 236.8zM377.6 524.8l64 64-108.8 108.8c-6.4 6.4-12.8 12.8-12.8 19.2l-25.6 76.8-160 70.4-12.8-19.2-19.2-12.8 70.4-160 83.2-25.6c0-6.4 6.4-6.4 12.8-12.8l108.8-108.8zM787.2 883.2c-38.4 0-76.8-19.2-102.4-44.8v0c-25.6-25.6-44.8-64-44.8-108.8v0c0-6.4 0-6.4 0-12.8v0-6.4c0-12.8 0-25.6-12.8-38.4l-531.2-531.2c-25.6-25.6-25.6-51.2-19.2-76.8 6.4-12.8 12.8-19.2 19.2-25.6v0c6.4-6.4 19.2-12.8 25.6-19.2 25.6-12.8 51.2-6.4 76.8 19.2l524.8 524.8c25.6 12.8 32 19.2 44.8 19.2 6.4 0 6.4 0 12.8 0s6.4 0 12.8 0c44.8 0 76.8 19.2 108.8 44.8v0c25.6 25.6 44.8 64 44.8 102.4-19.2-25.6-38.4-38.4-51.2-57.6-12.8-12.8-25.6-12.8-38.4-12.8l-76.8 25.6c-12.8 6.4-25.6 12.8-25.6 25.6l-25.6 76.8c-6.4 12.8 0 25.6 12.8 38.4 12.8 19.2 25.6 38.4 44.8 57.6v0z" />
<glyph unicode="&#xe929;" glyph-name="shield" d="M512-21.333c-8.533 0-17.067 0-21.333 8.533-358.4 221.867-362.667 490.667-362.667 503.467v298.667c0 25.6 17.067 42.667 42.667 42.667 119.467 0 324.267 89.6 324.267 89.6 21.333 8.533 46.933 0 55.467-21.333s0-46.933-21.333-55.467c-8.533-4.267-183.467-81.067-315.733-93.867v-260.267c0-8.533 8.533-234.667 320-435.2 21.333-12.8 25.6-38.4 12.8-59.733-4.267-8.533-21.333-17.067-34.133-17.067zM512-21.333c-12.8 0-29.867 8.533-34.133 21.333-12.8 21.333-8.533 46.933 12.8 59.733 311.467 196.267 320 422.4 320 430.933v260.267c-132.267 17.067-307.2 89.6-315.733 93.867-21.333 8.533-29.867 34.133-21.333 55.467s34.133 29.867 55.467 21.333c0 0 204.8-89.6 324.267-89.6 25.6 0 42.667-17.067 42.667-42.667v-298.667c0-12.8-4.267-281.6-362.667-503.467-4.267-8.533-12.8-8.533-21.333-8.533zM512-21.333c-25.6 0-42.667 17.067-42.667 42.667v853.333c0 25.6 17.067 42.667 42.667 42.667s42.667-17.067 42.667-42.667v-853.333c0-25.6-17.067-42.667-42.667-42.667z" />
<glyph unicode="&#xe92a;" glyph-name="shopping-cart" d="M851.2 448c44.8 0 83.2 32 96 76.8l76.8 320c12.8 57.6-32 115.2-96 115.2h-864c-32 0-64-32-64-64 0-38.4 25.6-64 64-64h64v-544c0-51.2 44.8-96 96-96h672c38.4 0 64 25.6 64 64s-25.6 64-64 64h-640v128h595.2zM256 832h633.6l-57.6-256h-576v256zM288 128c-51.2 0-96-44.8-96-96s44.8-96 96-96c51.2 0 96 44.8 96 96s-44.8 96-96 96zM800 128c-51.2 0-96-44.8-96-96s44.8-96 96-96c51.2 0 96 44.8 96 96s-44.8 96-96 96z" />
<glyph unicode="&#xe92b;" glyph-name="switch" d="M665.6 806.4h-307.2c-197.939 0-358.4-160.461-358.4-358.4s160.461-358.4 358.4-358.4h307.2c197.939 0 358.4 160.461 358.4 358.4s-160.461 358.4-358.4 358.4zM665.6 192h-307.2c-141.158 0-256 114.842-256 256s114.842 256 256 256h307.2c141.158 0 256-114.842 256-256s-114.842-256-256-256zM512 448c0-84.838-68.762-153.6-153.6-153.6s-153.6 68.762-153.6 153.6 68.762 153.6 153.6 153.6 153.6-68.762 153.6-153.6z" />
<glyph unicode="&#xe92c;" glyph-name="tag" d="M949.646 475.876l-408.462 410.055c-10.923 10.98-25.828 17.18-41.301 17.18h-384.171c-32.199 0-58.368-26.112-58.368-58.425v-384.114c0-15.474 6.144-30.379 17.124-41.301l409.316-409.316c11.378-11.378 26.34-17.067 41.244-17.067s29.867 5.689 41.244 17.067l383.317 383.374c22.756 22.756 22.812 59.733 0.057 82.546zM810.041 414.606l-264.988-264.988c-11.093-11.093-29.070-11.093-40.164 0l-333.881 333.881v277.333c0 15.701 12.743 28.444 28.388 28.444h277.447l333.141-334.507c11.093-11.093 11.036-29.127 0-40.22zM455.225 590.222c0-47.104-38.172-85.333-85.276-85.333s-85.276 38.229-85.276 85.333c0 47.104 38.172 85.333 85.276 85.333s85.276-38.229 85.276-85.333z" />
<glyph unicode="&#xe92d;" glyph-name="tax" d="M448 401.067h68.267l-34.133 76.8zM853.333 750.933h-682.667c-46.933 0-85.333-38.4-85.333-85.333v-426.667c0-46.933 38.4-85.333 85.333-85.333h682.667c46.933 0 85.333 38.4 85.333 85.333v426.667c0 46.933-38.4 85.333-85.333 85.333zM311.467 320h-64v200.533h-81.067v51.2h221.867v-51.2h-76.8v-200.533zM802.133 320l-64 85.333-55.467-85.333h-128l-17.067 38.4h-102.4l-21.333-38.4h-59.733l128 264.533h4.267l128-260.267 89.6 132.267-89.6 123.733h72.533l51.2-72.533 51.2 72.533h68.267l-81.067-119.467 102.4-136.533h-76.8z" />
<glyph unicode="&#xe92e;" glyph-name="telephone" d="M883.2 332.8c-6.4 32-32 64-64 70.4-134.4 32-166.4 108.8-172.8 192-19.2 0-64 6.4-134.4 6.4s-115.2-6.4-134.4-6.4c-6.4-83.2-38.4-160-172.8-192-32-6.4-57.6-32-64-70.4l-25.6-179.2c-6.4-64 38.4-121.6 102.4-121.6h595.2c64 0 108.8 57.6 102.4 121.6l-32 179.2zM512 166.4c-70.4 0-128 57.6-128 128s57.6 128 128 128 128-57.6 128-128c0-70.4-57.6-128-128-128zM1024 652.8c0 76.8-198.4 204.8-512 204.8s-512-128-512-204.8 0-179.2 128-160c153.6 19.2 147.2 70.4 147.2 147.2 0 51.2 121.6 64 236.8 64s236.8-12.8 236.8-64c0-76.8-6.4-128 140.8-147.2 134.4-19.2 134.4 83.2 134.4 160z" />
<glyph unicode="&#xe92f;" glyph-name="truck" d="M213.333 21.333c-72.533 0-128 55.467-128 128s55.467 128 128 128 128-55.467 128-128-55.467-128-128-128zM213.333 192c-25.6 0-42.667-17.067-42.667-42.667s17.067-42.667 42.667-42.667 42.667 17.067 42.667 42.667-17.067 42.667-42.667 42.667zM810.667 21.333c-72.533 0-128 55.467-128 128s55.467 128 128 128 128-55.467 128-128-55.467-128-128-128zM810.667 192c-25.6 0-42.667-17.067-42.667-42.667s17.067-42.667 42.667-42.667 42.667 17.067 42.667 42.667-17.067 42.667-42.667 42.667zM981.333 106.667h-85.333c-25.6 0-42.667 17.067-42.667 42.667s17.067 42.667 42.667 42.667h42.667v204.8l-72.533 221.867h-183.467c-25.6 0-42.667 17.067-42.667 42.667v128h-554.667v-597.333h42.667c25.6 0 42.667-17.067 42.667-42.667s-17.067-42.667-42.667-42.667h-85.333c-25.6 0-42.667 17.067-42.667 42.667v682.667c0 25.6 17.067 42.667 42.667 42.667h640c25.6 0 42.667-17.067 42.667-42.667v-128h170.667c17.067 0 34.133-12.8 38.4-29.867l85.333-256c0-4.267 4.267-8.533 4.267-12.8v-256c0-25.6-17.067-42.667-42.667-42.667zM725.333 106.667h-426.667c-25.6 0-42.667 17.067-42.667 42.667s17.067 42.667 42.667 42.667h426.667c25.6 0 42.667-17.067 42.667-42.667s-17.067-42.667-42.667-42.667zM682.667 106.667c-25.6 0-42.667 17.067-42.667 42.667v512c0 25.6 17.067 42.667 42.667 42.667s42.667-17.067 42.667-42.667v-512c0-25.6-17.067-42.667-42.667-42.667zM981.333 362.667h-298.667c-25.6 0-42.667 17.067-42.667 42.667s17.067 42.667 42.667 42.667h298.667c25.6 0 42.667-17.067 42.667-42.667s-17.067-42.667-42.667-42.667z" />
<glyph unicode="&#xe930;" glyph-name="twitter" d="M682.667 836.267c72.533 0 115.2-25.6 153.6-59.733 34.133 4.267 72.533 21.333 98.133 34.133 8.533 4.267 17.067 8.533 25.6 12.8-12.8-38.4-34.133-68.267-64-93.867-8.533-4.267-12.8-12.8-21.333-17.067 0 0 0 0 0 0 42.667 0 76.8 21.333 110.933 29.867 0 0 0 0 0 0-17.067-29.867-38.4-55.467-64-76.8-8.533-8.533-21.333-17.067-29.867-25.6 0-46.933 0-89.6-8.533-123.733-46.933-217.6-174.933-366.933-375.467-430.933-72.533-21.333-187.733-34.133-273.067-12.8-42.667 8.533-76.8 21.333-115.2 38.4-21.333 8.533-38.4 17.067-55.467 29.867-8.533 0-17.067 4.267-21.333 8.533 17.067 0 38.4-4.267 59.733-4.267 25.6 4.267 38.4 4.267 55.467 8.533 42.667 8.533 81.067 21.333 115.2 42.667 17.067 8.533 42.667 21.333 51.2 34.133-21.333 0-42.667 4.267-55.467 8.533-64 21.333-98.133 64-123.733 123.733 17.067 0 72.533-8.533 85.333 4.267-25.6 0-46.933 17.067-64 25.6-51.2 29.867-89.6 85.333-89.6 166.4 8.533 0 17.067-4.267 21.333-4.267 12.8-4.267 25.6-8.533 38.4-12.8 4.267 0 17.067-4.267 25.6-4.267 0 0 0 0 0 0-8.533 12.8-21.333 21.333-34.133 34.133-29.867 38.4-59.733 102.4-42.667 174.933 4.267 17.067 12.8 34.133 21.333 51.2 0 0 0 0 0 0 4.267-8.533 12.8-12.8 17.067-21.333 17.067-21.333 38.4-38.4 55.467-55.467 68.267-55.467 132.267-89.6 234.667-115.2 25.6-8.533 55.467-12.8 85.333-12.8-8.533 25.6-4.267 68.267 0 93.867 17.067 64 55.467 106.667 110.933 132.267 12.8 4.267 25.6 8.533 42.667 12.8 12.8 0 21.333 0 29.867 4.267z" />
<glyph unicode="&#xe931;" glyph-name="user-login" d="M812.8 531.2v0c12.8 38.4 19.2 70.4 19.2 108.8 0 179.2-140.8 320-320 320s-320-140.8-320-320c0-38.4 6.4-70.4 19.2-108.8v0c-128-57.6-211.2-192-211.2-339.2v-192c0-38.4 25.6-64 64-64h896c38.4 0 64 25.6 64 64v192c0 147.2-83.2 281.6-211.2 339.2zM512 832c108.8 0 192-83.2 192-192s-83.2-192-192-192c-108.8 0-192 83.2-192 192 0 102.4 83.2 192 192 192zM896 64h-768v128c0 102.4 64 192 147.2 230.4 57.6-64 140.8-102.4 236.8-102.4s179.2 38.4 236.8 102.4c83.2-38.4 147.2-128 147.2-230.4v-128z" />
<glyph unicode="&#xe932;" glyph-name="user" d="M512 405.333c-38.4 0-72.533 12.8-102.4 29.867-72.533 46.933-110.933 145.067-110.933 268.8 0 119.467 93.867 213.333 213.333 213.333s213.333-93.867 213.333-213.333c0-123.733-38.4-221.867-110.933-268.8-29.867-17.067-64-29.867-102.4-29.867zM512 832c-72.533 0-128-55.467-128-128 0-93.867 25.6-166.4 72.533-196.267 34.133-21.333 76.8-21.333 110.933 0 46.933 29.867 72.533 102.4 72.533 196.267 0 72.533-55.467 128-128 128zM512-21.333c-98.133 0-426.667 12.8-426.667 170.667s115.2 213.333 243.2 251.733c8.533 4.267 42.667 17.067 55.467 81.067l85.333-17.067c-12.8-76.8-55.467-123.733-115.2-145.067-128-42.667-183.467-76.8-183.467-170.667 0-46.933 179.2-85.333 341.333-85.333s341.333 38.4 341.333 85.333c0 93.867-55.467 128-183.467 174.933-59.733 21.333-98.133 68.267-115.2 145.067l85.333 17.067c12.8-64 46.933-76.8 59.733-81.067 128-42.667 243.2-93.867 243.2-251.733-4.267-42.667-34.133-174.933-430.933-174.933z" />
<glyph unicode="&#xe933;" glyph-name="wallet" d="M128 618.667c-72.533 0-128 55.467-128 128s55.467 128 128 128c25.6 0 42.667-17.067 42.667-42.667s-17.067-42.667-42.667-42.667c-25.6 0-42.667-17.067-42.667-42.667s17.067-42.667 42.667-42.667c25.6 0 42.667-17.067 42.667-42.667s-17.067-42.667-42.667-42.667zM128 21.333c-72.533 0-128 55.467-128 128 0 25.6 17.067 42.667 42.667 42.667s42.667-17.067 42.667-42.667c0-25.6 17.067-42.667 42.667-42.667s42.667-17.067 42.667-42.667-17.067-42.667-42.667-42.667zM981.333 21.333h-853.333c-25.6 0-42.667 17.067-42.667 42.667s17.067 42.667 42.667 42.667h810.667v512h-810.667c-25.6 0-42.667 17.067-42.667 42.667s17.067 42.667 42.667 42.667h853.333c25.6 0 42.667-17.067 42.667-42.667v-597.333c0-25.6-17.067-42.667-42.667-42.667zM896 618.667c-25.6 0-42.667 17.067-42.667 42.667v128h-725.333c-25.6 0-42.667 17.067-42.667 42.667s17.067 42.667 42.667 42.667h768c25.6 0 42.667-17.067 42.667-42.667v-170.667c0-25.6-17.067-42.667-42.667-42.667zM42.667 106.667c-25.6 0-42.667 17.067-42.667 42.667v597.333c0 25.6 17.067 42.667 42.667 42.667s42.667-17.067 42.667-42.667v-597.333c0-25.6-17.067-42.667-42.667-42.667zM853.333 362.667c0-47.128-38.205-85.333-85.333-85.333s-85.333 38.205-85.333 85.333c0 47.128 38.205 85.333 85.333 85.333s85.333-38.205 85.333-85.333z" />
<glyph unicode="&#xe934;" glyph-name="warning" d="M512 867.232l429.088-855.232h-858.208l429.088 855.232zM512 960c-22.080 0-44.128-14.88-60.896-44.64l-437.088-871.104c-33.472-59.52-4.992-108.256 63.296-108.256h869.312c68.288 0 96.8 48.704 63.296 108.256v0l-437.088 871.104c-16.736 29.76-38.816 44.64-60.896 44.64v0zM576 128c0-35.36-28.64-64-64-64s-64 28.64-64 64c0 35.36 28.64 64 64 64s64-28.64 64-64zM512 256c-35.36 0-64 28.64-64 64v192c0 35.36 28.64 64 64 64s64-28.64 64-64v-192c0-35.36-28.64-64-64-64z" />
<glyph unicode="&#xe935;" glyph-name="wechat" d="M290.016 665.504q0 20.512-12.512 32.992t-32.992 12.512q-21.504 0-38.016-12.736t-16.512-32.736q0-19.488 16.512-32.256t38.016-12.736q20.512 0 32.992 12.256t12.512 32.736zM661.504 412q0 14.016-12.736 24.992t-32.736 11.008q-13.504 0-24.736-11.264t-11.264-24.736q0-14.016 11.264-25.248t24.736-11.264q20 0 32.736 11.008t12.736 25.504zM543.488 665.504q0 20.512-12.256 32.992t-32.736 12.512q-21.504 0-38.016-12.736t-16.512-32.736q0-19.488 16.512-32.256t38.016-12.736q20.512 0 32.736 12.256t12.256 32.736zM860.992 412q0 14.016-12.992 24.992t-32.512 11.008q-13.504 0-24.736-11.264t-11.264-24.736q0-14.016 11.264-25.248t24.736-11.264q19.488 0 32.512 11.008t12.992 25.504zM728 610.496q-15.488 2.016-35.008 2.016-84.512 0-155.488-38.496t-111.744-104.256-40.736-143.744q0-39.008 11.488-76-17.504-1.504-33.984-1.504-12.992 0-24.992 0.736t-27.488 3.264-22.24 3.488-27.264 5.248-24.992 5.248l-126.496-63.488 36 108.992q-144.992 101.504-144.992 244.992 0 84.512 48.736 155.488t132 111.744 181.76 40.736q88 0 166.24-32.992t131.008-91.264 68.256-130.24zM1024 330.016q0-58.496-34.24-111.744t-92.736-96.736l27.488-90.496-99.488 54.496q-75.008-18.496-108.992-18.496-84.512 0-155.488 35.264t-111.744 95.744-40.736 132 40.736 132 111.744 95.744 155.488 35.264q80.512 0 151.488-35.264t113.76-96 42.752-131.744z" />
<glyph unicode="&#xe936;" glyph-name="write" d="M910.279 334.222c-31.46 0-56.889-25.486-56.889-56.889v-142.222c0-15.701-12.743-28.444-28.444-28.444h-625.892c-15.701 0-28.444 12.743-28.444 28.444v625.778c0 15.701 12.743 28.444 28.444 28.444h142.222c31.46 0 56.889 25.486 56.889 56.889s-25.486 56.889-56.889 56.889h-227.556c-31.46 0-56.889-25.486-56.889-56.889v-796.444c0-31.403 25.486-56.889 56.889-56.889h796.558c31.46 0 56.889 25.486 56.889 56.889v227.556c0 31.403-25.429 56.889-56.889 56.889zM749.17 766.407l81.294-81.294-338.375-350.891h-93.867v93.867l350.948 338.318zM749.909 903.111c-14.564 0-29.070-5.518-40.164-16.612l-425.301-410.055v-256h256.057l410.112 425.244c22.187 22.187 22.187 58.084 0 80.27l-160.54 160.54c-11.036 11.093-25.6 16.612-40.107 16.612v0z" />
</font>
</defs>
</svg>
